<?xml version="1.0" encoding="UTF-8"?>
<svg id="Layer_2" data-name="Layer 2" xmlns="http://www.w3.org/2000/svg" xmlns:xlink="http://www.w3.org/1999/xlink" viewBox="0 0 345.7 219.87">
  <defs>
    <style>
      .cls-1 {
        fill: rgba(84, 48, 66, .4);
      }

      .cls-2 {
        fill: #fff;
      }

      .cls-3 {
        fill: #e61b48;
      }

      .cls-4 {
        fill: #543042;
      }

      .cls-5 {
        clip-path: url(#clippath);
      }

      .cls-6 {
        fill: none;
      }

      .cls-7 {
        fill: #b69262;
      }
    </style>
    <clipPath id="clippath">
      <rect class="cls-6" width="102" height="219.87"/>
    </clipPath>
  </defs>
  <g id="Layer_1-2" data-name="Layer 1">
    <g class="cls-5">
      <path class="cls-3" d="m157.34,111.69c.39-.13.78-.27,1.18-.41,3.74-1.36,7.58-3.01,11.69-5.76.5-.33,1.04-.73,1.55-1.1.48-.38.88-.72,1.32-1.09.84-.74,1.67-1.49,2.44-2.29,1.56-1.57,2.97-3.24,4.26-4.99,2.55-3.51,4.57-7.34,5.96-11.43,1.39-4.08,2.15-8.43,2.07-12.85-.04-2.2-.27-4.41-.74-6.57-.24-1.1-.52-2.08-.83-3.09-.31-.99-.67-1.98-1.07-2.95-1.6-3.88-3.91-7.36-6.45-10.22-2.55-2.88-5.29-5.18-7.96-7.2-5.36-4.03-10.51-7.06-14.74-10.8-8.57-7.48-14.98-18.34-16.98-30.57-.03-.18-.18-.33-.38-.34-.23-.02-.43.15-.44.38-.93,12.55,2.79,25.84,10.61,36.9,3.96,5.58,8.69,10.14,12.33,14.6,1.82,2.22,3.38,4.41,4.48,6.55,1.1,2.14,1.74,4.19,2.01,6.22.06.52.1,1.03.12,1.54s.03,1.06-.01,1.48c-.06.91-.23,1.81-.47,2.7-.48,1.77-1.31,3.5-2.4,5.08-1.09,1.59-2.46,3.02-3.95,4.2-.75.58-1.54,1.1-2.33,1.54-.4.22-.8.42-1.2.6-.19.08-.43.18-.58.24l-.42.13c-1.25.4-3.29.88-5.5,1.16-2.22.3-4.68.45-7.17.44-.81,0-1.63-.02-2.45-.06-13.09-7.74-28.96-12.03-42.37-12.36-13.52-.34-28.48,4.32-41.17,11.96-.01,0-.03,0-.03,0-2.43.3-4.97.44-7.45.45-2.49,0-4.94-.14-7.17-.44-2.21-.28-4.25-.76-5.5-1.16l-.42-.13c-.16-.05-.39-.16-.58-.24-.4-.18-.8-.38-1.2-.6-.8-.44-1.58-.95-2.33-1.54-1.49-1.18-2.86-2.61-3.95-4.2-1.09-1.58-1.92-3.31-2.4-5.08-.24-.89-.41-1.79-.47-2.7-.04-.43-.03-.97-.02-1.48.03-.51.07-1.02.13-1.54.27-2.03.9-4.09,2.01-6.22,1.1-2.14,2.66-4.33,4.48-6.55,3.64-4.47,8.38-9.02,12.33-14.6,7.82-11.06,11.54-24.34,10.61-36.9-.02-.18-.16-.35-.35-.38-.22-.03-.43.12-.47.34-2,12.23-8.41,23.08-16.98,30.57-4.24,3.73-9.39,6.77-14.74,10.8-2.67,2.03-5.41,4.33-7.96,7.2-2.54,2.86-4.85,6.34-6.45,10.22-.4.97-.76,1.95-1.07,2.95-.31,1.01-.59,1.98-.82,3.09-.47,2.16-.71,4.37-.74,6.57-.08,4.42.68,8.76,2.07,12.85,1.39,4.09,3.41,7.92,5.96,11.43,1.28,1.75,2.7,3.42,4.26,4.99.78.79,1.59,1.54,2.44,2.29.44.36.83.71,1.32,1.09.51.37,1.05.78,1.55,1.1,4.1,2.74,7.94,4.39,11.69,5.76.39.14.78.28,1.18.41H.11c4.41,10.07,15.24,17.19,27.93,17.19,6.32,0,12.18-1.77,17.01-4.79,14.42,37.41,31.24,44.07,31.34,80.01-.24,4.14.95,7.81,3.67,9.82,4.37,3.24,11.45,5.55,19.36,5.68,7.92.14,14.89-1.96,19.19-5.15,2.67-1.98,3.85-5.69,3.7-9.88,1.1-34.81,14.6-43.44,29.44-80.04,4.69,2.75,10.29,4.35,16.3,4.35,12.68,0,23.52-7.13,27.93-17.19h-38.64Z"/>
    </g>
    <path class="cls-2" d="m84.06,200.95c2.66.32,4.92,1.42,6.79,2.96,1.87,1.54,3.16,3.59,3.89,5.71.05.16-.03.33-.19.39-.13.05-.28-.01-.35-.12-1.19-1.8-2.77-3.24-4.58-4.08-1.78-.85-3.83-1.19-5.54-.93-1.08.16-2.1-.58-2.26-1.67-.17-1.08.58-2.1,1.67-2.26.18-.03.35-.03.53-.01h.07Z"/>
    <path class="cls-2" d="m67.74,148.84c3.57,2.1,6.54,5.01,9.04,8.27,2.44,3.3,4.61,6.85,6.25,10.64,1.68,3.77,2.88,7.72,3.66,11.72l.53,3.01.37,3.02c.21,2.02.37,4.03.43,6.05,0,.21-.16.38-.37.39-.18,0-.34-.13-.38-.3l-1.28-5.86c-.47-1.93-.99-3.85-1.52-5.76-1.11-3.79-2.49-7.47-4.2-10.98-1.73-3.49-3.76-6.83-6.12-9.95-2.31-3.16-4.76-6.2-6.94-9.7-.11-.18-.06-.42.12-.54.13-.08.29-.08.41,0Z"/>
    <path class="cls-1" d="m131.47,88.75c-.57-.78-1.23-1.39-1.98-1.83-.74-.46-1.6-.69-2.6-.69s-1.91.34-2.65,1.02c-.74.68-1.1,1.49-1.1,2.44,0,.88.36,1.62,1.08,2.23.72.6,1.78,1.17,3.19,1.71,2.44,1.02,4.17,1.98,5.19,2.9,1.01.92,1.71,1.91,2.1,2.98.4,1.06.6,2.22.6,3.48,0,3.13-.93,5.66-2.77,7.6-1.85,1.93-4.29,2.9-7.31,2.9-2.11,0-3.95-.55-5.52-1.65-1.56-1.09-2.86-2.54-3.92-4.33l3.85-3.77c.47,1.29,1.22,2.36,2.25,3.21,1.03.83,2.13,1.25,3.29,1.25s2.07-.41,2.81-1.23c.75-.83,1.13-1.9,1.13-3.19,0-1.14-.35-2.05-1.06-2.73-.7-.68-1.74-1.29-3.13-1.83-3.06-1.17-5.15-2.4-6.27-3.69-1.13-1.3-1.69-3.02-1.69-5.15,0-1.63.38-3.14,1.13-4.54.76-1.42,1.83-2.54,3.21-3.38,1.39-.84,2.92-1.27,4.6-1.27,1.48,0,3.05.34,4.69,1.02,1.64.68,2.86,1.48,3.69,2.4l-2.81,4.15Z"/>
    <path class="cls-1" d="m154.29,82v5.21h-9.9v6.75h9.52v5.21h-9.52v8.29h9.9v5.21h-15.88v-30.67h15.88Z"/>
    <path class="cls-1" d="m172.3,81.19l11.63,31.48h-6.38l-2.38-6.46h-10.65l-2.52,6.46h-6.31l11.96-31.48h4.65Zm-6.06,20.13h7.27l-3.81-11.13h-.08l-3.38,11.13Z"/>
    <path class="cls-1" d="m200.18,88.75c-.57-.78-1.23-1.39-1.98-1.83-.74-.46-1.6-.69-2.6-.69s-1.91.34-2.65,1.02c-.74.68-1.1,1.49-1.1,2.44,0,.88.36,1.62,1.08,2.23.72.6,1.78,1.17,3.19,1.71,2.44,1.02,4.17,1.98,5.19,2.9,1.01.92,1.71,1.91,2.1,2.98.4,1.06.6,2.22.6,3.48,0,3.13-.93,5.66-2.77,7.6-1.85,1.93-4.29,2.9-7.31,2.9-2.11,0-3.95-.55-5.52-1.65-1.56-1.09-2.86-2.54-3.92-4.33l3.85-3.77c.47,1.29,1.22,2.36,2.25,3.21,1.03.83,2.13,1.25,3.29,1.25s2.07-.41,2.81-1.23c.75-.83,1.13-1.9,1.13-3.19,0-1.14-.35-2.05-1.06-2.73-.7-.68-1.74-1.29-3.13-1.83-3.06-1.17-5.15-2.4-6.27-3.69-1.13-1.3-1.69-3.02-1.69-5.15,0-1.63.38-3.14,1.13-4.54.76-1.42,1.83-2.54,3.21-3.38,1.39-.84,2.92-1.27,4.6-1.27,1.48,0,3.05.34,4.69,1.02,1.64.68,2.86,1.48,3.69,2.4l-2.81,4.15Z"/>
    <path class="cls-1" d="m205.66,97.29c0-3.08.65-5.84,1.94-8.29,1.29-2.44,3.09-4.35,5.4-5.73,2.32-1.39,4.93-2.08,7.83-2.08s5.6.72,7.94,2.15c2.33,1.42,4.11,3.35,5.35,5.81,1.25,2.45,1.88,5.16,1.88,8.15s-.65,5.93-1.94,8.4c-1.28,2.46-3.06,4.38-5.35,5.75-2.29,1.36-4.92,2.04-7.88,2.04s-5.5-.67-7.79-2c-2.29-1.34-4.1-3.26-5.42-5.75-1.31-2.5-1.96-5.31-1.96-8.44Zm15.13-10.21c-2.54,0-4.67.98-6.38,2.94-1.71,1.95-2.56,4.29-2.56,7.02,0,3.07.8,5.6,2.42,7.58,1.61,1.97,3.8,2.96,6.56,2.96s4.95-.98,6.56-2.96c1.63-1.98,2.44-4.51,2.44-7.58,0-2.76-.85-5.11-2.56-7.04-1.71-1.94-3.87-2.92-6.48-2.92Z"/>
    <path class="cls-1" d="m243.23,81.19l16.15,21.44h.08v-20.63h5.98v31.27h-4.31l-16.15-21.42h-.08v20.81h-5.98v-31.48h4.31Z"/>
    <path class="cls-1" d="m285.65,82v5.21h-9.9v6.75h9.52v5.21h-9.52v8.29h9.9v5.21h-15.88v-30.67h15.88Z"/>
    <path class="cls-1" d="m298.36,82c1.79,0,3.59.34,5.4,1.02,1.82.68,3.44,1.73,4.85,3.15,1.43,1.41,2.51,3.08,3.25,5.02.73,1.93,1.1,3.99,1.1,6.19,0,2.96-.66,5.61-1.98,7.96-1.31,2.35-3.09,4.16-5.35,5.44-2.25,1.27-4.69,1.9-7.31,1.9h-8.71v-30.67h8.75Zm-2.77,25.46h.85c3.47,0,6.06-.84,7.77-2.54,1.71-1.69,2.56-4.22,2.56-7.58s-.84-5.82-2.52-7.54c-1.68-1.72-4.29-2.58-7.81-2.58h-.85v20.25Z"/>
    <path class="cls-3" d="m129.67,86.95c-.57-.78-1.23-1.39-1.98-1.83-.74-.46-1.6-.69-2.6-.69s-1.91.34-2.65,1.02c-.74.68-1.1,1.49-1.1,2.44,0,.88.36,1.62,1.08,2.23.72.6,1.78,1.17,3.19,1.71,2.44,1.02,4.17,1.98,5.19,2.9,1.01.92,1.71,1.91,2.1,2.98.4,1.06.6,2.22.6,3.48,0,3.13-.93,5.66-2.77,7.6-1.85,1.93-4.29,2.9-7.31,2.9-2.11,0-3.95-.55-5.52-1.65-1.56-1.09-2.86-2.54-3.92-4.33l3.85-3.77c.47,1.29,1.22,2.36,2.25,3.21,1.03.83,2.13,1.25,3.29,1.25s2.07-.41,2.81-1.23c.75-.83,1.13-1.9,1.13-3.19,0-1.14-.35-2.05-1.06-2.73-.7-.68-1.74-1.29-3.13-1.83-3.06-1.17-5.15-2.4-6.27-3.69-1.13-1.3-1.69-3.02-1.69-5.15,0-1.63.38-3.14,1.13-4.54.76-1.42,1.83-2.54,3.21-3.38,1.39-.84,2.92-1.27,4.6-1.27,1.48,0,3.05.34,4.69,1.02,1.64.68,2.86,1.48,3.69,2.4l-2.81,4.15Z"/>
    <path class="cls-3" d="m152.49,80.2v5.21h-9.9v6.75h9.52v5.21h-9.52v8.29h9.9v5.21h-15.88v-30.67h15.88Z"/>
    <path class="cls-3" d="m170.5,79.39l11.63,31.48h-6.38l-2.38-6.46h-10.65l-2.52,6.46h-6.31l11.96-31.48h4.65Zm-6.06,20.13h7.27l-3.81-11.13h-.08l-3.38,11.13Z"/>
    <path class="cls-3" d="m198.38,86.95c-.57-.78-1.23-1.39-1.98-1.83-.74-.46-1.6-.69-2.6-.69s-1.91.34-2.65,1.02c-.74.68-1.1,1.49-1.1,2.44,0,.88.36,1.62,1.08,2.23.72.6,1.78,1.17,3.19,1.71,2.44,1.02,4.17,1.98,5.19,2.9,1.01.92,1.71,1.91,2.1,2.98.4,1.06.6,2.22.6,3.48,0,3.13-.93,5.66-2.77,7.6-1.85,1.93-4.29,2.9-7.31,2.9-2.11,0-3.95-.55-5.52-1.65-1.56-1.09-2.86-2.54-3.92-4.33l3.85-3.77c.47,1.29,1.22,2.36,2.25,3.21,1.03.83,2.13,1.25,3.29,1.25s2.07-.41,2.81-1.23c.75-.83,1.13-1.9,1.13-3.19,0-1.14-.35-2.05-1.06-2.73-.7-.68-1.74-1.29-3.13-1.83-3.06-1.17-5.15-2.4-6.27-3.69-1.13-1.3-1.69-3.02-1.69-5.15,0-1.63.38-3.14,1.13-4.54.76-1.42,1.83-2.54,3.21-3.38,1.39-.84,2.92-1.27,4.6-1.27,1.48,0,3.05.34,4.69,1.02,1.64.68,2.86,1.48,3.69,2.4l-2.81,4.15Z"/>
    <path class="cls-3" d="m203.87,95.5c0-3.08.65-5.84,1.94-8.29,1.29-2.44,3.09-4.35,5.4-5.73,2.32-1.39,4.93-2.08,7.83-2.08s5.6.72,7.94,2.15c2.33,1.42,4.11,3.35,5.35,5.81,1.25,2.45,1.88,5.16,1.88,8.15s-.65,5.93-1.94,8.4c-1.28,2.46-3.06,4.38-5.35,5.75-2.29,1.36-4.92,2.04-7.88,2.04s-5.5-.67-7.79-2c-2.29-1.34-4.1-3.26-5.42-5.75-1.31-2.5-1.96-5.31-1.96-8.44Zm15.13-10.21c-2.54,0-4.67.98-6.38,2.94-1.71,1.95-2.56,4.29-2.56,7.02,0,3.07.8,5.6,2.42,7.58,1.61,1.97,3.8,2.96,6.56,2.96s4.95-.98,6.56-2.96c1.63-1.98,2.44-4.51,2.44-7.58,0-2.76-.85-5.11-2.56-7.04-1.71-1.94-3.87-2.92-6.48-2.92Z"/>
    <path class="cls-3" d="m241.43,79.39l16.15,21.44h.08v-20.63h5.98v31.27h-4.31l-16.15-21.42h-.08v20.81h-5.98v-31.48h4.31Z"/>
    <path class="cls-3" d="m283.85,80.2v5.21h-9.9v6.75h9.52v5.21h-9.52v8.29h9.9v5.21h-15.88v-30.67h15.88Z"/>
    <path class="cls-3" d="m296.57,80.2c1.79,0,3.59.34,5.4,1.02,1.82.68,3.44,1.73,4.85,3.15,1.43,1.41,2.51,3.08,3.25,5.02.73,1.93,1.1,3.99,1.1,6.19,0,2.96-.66,5.61-1.98,7.96-1.31,2.35-3.09,4.16-5.35,5.44-2.25,1.27-4.69,1.9-7.31,1.9h-8.71v-30.67h8.75Zm-2.77,25.46h.85c3.47,0,6.06-.84,7.77-2.54,1.71-1.69,2.56-4.22,2.56-7.58s-.84-5.82-2.52-7.54c-1.68-1.72-4.29-2.58-7.81-2.58h-.85v20.25Z"/>
    <path class="cls-1" d="m123.09,129.18c2.32,0,4.06.54,5.23,1.63,1.18,1.07,1.77,2.68,1.77,4.83,0,.89-.17,1.77-.5,2.63-.32.86-.85,1.54-1.58,2.02,1.28.25,2.27.94,2.98,2.06.72,1.11,1.08,2.42,1.08,3.92,0,2.13-.67,3.79-2,4.98-1.33,1.2-3.18,1.79-5.52,1.79h-7.4v-23.85h5.94Zm-1.29,9.94h.56c1.28,0,2.16-.23,2.65-.71.5-.47.75-1.28.75-2.42,0-1.01-.26-1.78-.77-2.29-.5-.51-1.39-.77-2.65-.77h-.54v6.19Zm0,10.19h1.29c1.54,0,2.65-.26,3.31-.77.68-.53,1.02-1.41,1.02-2.65,0-.97-.22-1.68-.67-2.13-.43-.44-.91-.73-1.44-.85-.61-.17-1.46-.25-2.54-.25h-.98v6.65Z"/>
    <path class="cls-1" d="m139.16,129.18v13.58c0,2.32.33,4.04,1,5.17.68,1.13,1.75,1.69,3.21,1.69s2.54-.55,3.21-1.67c.67-1.13,1-2.83,1-5.13v-13.65h4.65v14.4c0,3.21-.76,5.7-2.27,7.46-1.5,1.75-3.7,2.63-6.58,2.63s-5.09-.88-6.6-2.65c-1.5-1.78-2.25-4.26-2.25-7.44v-14.4h4.65Z"/>
    <path class="cls-1" d="m168.07,129.18v4.06h-4.81v19.79h-4.65v-19.79h-4.81v-4.06h14.27Z"/>
    <path class="cls-1" d="m185.71,135.52c-.66-.8-1.45-1.42-2.4-1.85-.93-.44-1.89-.67-2.85-.67-2.03,0-3.71.8-5.04,2.4-1.32,1.6-1.98,3.54-1.98,5.81s.67,4.14,2.02,5.71c1.34,1.56,3.01,2.33,4.98,2.33,1,0,1.96-.23,2.9-.71.93-.47,1.72-1.08,2.38-1.83v5.54c-.89.42-1.77.76-2.65,1.02-.88.26-1.8.4-2.77.4-2.1,0-4.03-.54-5.79-1.6-1.77-1.07-3.19-2.57-4.27-4.52-1.07-1.94-1.6-4.02-1.6-6.23,0-2.32.51-4.46,1.54-6.44,1.04-1.97,2.46-3.51,4.27-4.63,1.8-1.13,3.79-1.69,5.96-1.69.94,0,1.86.13,2.75.38.9.24,1.76.58,2.56,1.02v5.56Z"/>
    <path class="cls-1" d="m193.43,129.18v9.4h8.6v-9.4h4.65v23.85h-4.65v-10.67h-8.6v10.67h-4.65v-23.85h4.65Z"/>
    <path class="cls-1" d="m222.43,129.18v4.06h-7.69v5.25h7.4v4.04h-7.4v6.46h7.69v4.04h-12.33v-23.85h12.33Z"/>
    <path class="cls-1" d="m231.95,129.18c2.51,0,4.45.62,5.81,1.85,1.36,1.24,2.04,3.02,2.04,5.33,0,1.68-.46,3.16-1.38,4.42-.92,1.25-2.08,1.98-3.5,2.19l6.73,10.06h-5.63l-5.79-9.6h-.06v9.6h-4.65v-23.85h6.42Zm-1.77,10.98h.5c1.61,0,2.76-.29,3.44-.88.68-.59,1.02-1.53,1.02-2.79s-.34-2.13-1.02-2.67c-.67-.55-1.79-.83-3.38-.83h-.56v7.17Z"/>
    <path class="cls-4" d="m121.69,127.79c2.32,0,4.06.54,5.23,1.63,1.18,1.07,1.77,2.68,1.77,4.83,0,.89-.17,1.77-.5,2.63-.32.86-.85,1.54-1.58,2.02,1.28.25,2.27.94,2.98,2.06.72,1.11,1.08,2.42,1.08,3.92,0,2.13-.67,3.79-2,4.98-1.33,1.2-3.18,1.79-5.52,1.79h-7.4v-23.85h5.94Zm-1.29,9.94h.56c1.28,0,2.16-.23,2.65-.71.5-.47.75-1.28.75-2.42,0-1.01-.26-1.78-.77-2.29-.5-.51-1.39-.77-2.65-.77h-.54v6.19Zm0,10.19h1.29c1.54,0,2.65-.26,3.31-.77.68-.53,1.02-1.41,1.02-2.65,0-.97-.22-1.68-.67-2.13-.43-.44-.91-.73-1.44-.85-.61-.17-1.46-.25-2.54-.25h-.98v6.65Z"/>
    <path class="cls-4" d="m137.76,127.79v13.58c0,2.32.33,4.04,1,5.17.68,1.13,1.75,1.69,3.21,1.69s2.54-.55,3.21-1.67c.67-1.13,1-2.83,1-5.13v-13.65h4.65v14.4c0,3.21-.76,5.7-2.27,7.46-1.5,1.75-3.7,2.63-6.58,2.63s-5.09-.88-6.6-2.65c-1.5-1.78-2.25-4.26-2.25-7.44v-14.4h4.65Z"/>
    <path class="cls-4" d="m166.68,127.79v4.06h-4.81v19.79h-4.65v-19.79h-4.81v-4.06h14.27Z"/>
    <path class="cls-4" d="m184.31,134.12c-.66-.8-1.45-1.42-2.4-1.85-.93-.44-1.89-.67-2.85-.67-2.03,0-3.71.8-5.04,2.4-1.32,1.6-1.98,3.54-1.98,5.81s.67,4.14,2.02,5.71c1.34,1.56,3.01,2.33,4.98,2.33,1,0,1.96-.23,2.9-.71.93-.47,1.72-1.08,2.38-1.83v5.54c-.89.42-1.77.76-2.65,1.02-.88.26-1.8.4-2.77.4-2.1,0-4.03-.54-5.79-1.6-1.77-1.07-3.19-2.57-4.27-4.52-1.07-1.94-1.6-4.02-1.6-6.23,0-2.32.51-4.46,1.54-6.44,1.04-1.97,2.46-3.51,4.27-4.63,1.8-1.13,3.79-1.69,5.96-1.69.94,0,1.86.13,2.75.38.9.24,1.76.58,2.56,1.02v5.56Z"/>
    <path class="cls-4" d="m192.03,127.79v9.4h8.6v-9.4h4.65v23.85h-4.65v-10.67h-8.6v10.67h-4.65v-23.85h4.65Z"/>
    <path class="cls-4" d="m221.03,127.79v4.06h-7.69v5.25h7.4v4.04h-7.4v6.46h7.69v4.04h-12.33v-23.85h12.33Z"/>
    <path class="cls-4" d="m230.55,127.79c2.51,0,4.45.62,5.81,1.85,1.36,1.24,2.04,3.02,2.04,5.33,0,1.68-.46,3.16-1.38,4.42-.92,1.25-2.08,1.98-3.5,2.19l6.73,10.06h-5.63l-5.79-9.6h-.06v9.6h-4.65v-23.85h6.42Zm-1.77,10.98h.5c1.61,0,2.76-.29,3.44-.88.68-.59,1.02-1.53,1.02-2.79s-.34-2.13-1.02-2.67c-.67-.55-1.79-.83-3.38-.83h-.56v7.17Z"/>
    <path class="cls-7" d="m120.23,171.42l3,7.77,2.94-7.56h1.44l-4.38,10.98-3-7.73-2.98,7.73-4.38-10.98h1.42l2.96,7.56,2.98-7.77Z"/>
    <path class="cls-7" d="m134.19,171.63v4.27h5.02v-4.27h1.33v10.56h-1.33v-5.06h-5.02v5.06h-1.31v-10.56h1.31Z"/>
    <path class="cls-7" d="m152.68,171.63v1.21h-4.35v2.96h4.21v1.21h-4.21v3.98h4.35v1.21h-5.69v-10.56h5.69Z"/>
    <path class="cls-7" d="m160.65,171.63c.92,0,1.64.1,2.17.29.53.2.96.54,1.29,1.02.34.49.52,1.06.52,1.71,0,.78-.24,1.45-.71,2-.47.56-1.08.88-1.81.96l3.33,4.58h-1.6l-3.1-4.46h-.54v4.46h-1.33v-10.56h1.79Zm-.46,5h.4c1.01,0,1.73-.16,2.17-.48.43-.32.65-.8.65-1.46s-.24-1.13-.71-1.42c-.47-.3-1.2-.46-2.17-.46h-.33v3.81Z"/>
    <path class="cls-7" d="m176.71,171.63v1.21h-4.35v2.96h4.21v1.21h-4.21v3.98h4.35v1.21h-5.69v-10.56h5.69Z"/>
    <path class="cls-7" d="m200.17,180.8l1.65,1.63h-1.6l-.9-.94c-.45.29-.93.52-1.44.69-.52.17-1.04.25-1.58.25-1,0-1.93-.24-2.79-.73-.85-.48-1.52-1.15-2-2-.49-.84-.73-1.77-.73-2.77s.25-1.9.75-2.75c.5-.84,1.17-1.51,2.02-2,.86-.5,1.78-.75,2.75-.75s1.89.25,2.75.75c.86.49,1.54,1.16,2.04,2,.5.83.75,1.75.75,2.75,0,.74-.15,1.45-.44,2.13-.28.67-.69,1.25-1.23,1.75Zm-1.77-.21l-2.42-2.38h1.63l1.67,1.65c.4-.34.71-.79.92-1.33s.31-1.07.31-1.6c0-.79-.19-1.51-.56-2.17-.36-.67-.87-1.18-1.52-1.54-.64-.38-1.35-.56-2.13-.56s-1.49.19-2.15.56c-.64.36-1.15.88-1.52,1.54-.36.66-.54,1.38-.54,2.17s.19,1.47.56,2.13c.38.66.89,1.18,1.54,1.56.65.39,1.35.58,2.1.58.36,0,.72-.05,1.08-.17.38-.11.71-.26,1.02-.44Z"/>
    <path class="cls-7" d="m208.8,171.63v6.31c0,1.07.21,1.89.63,2.44.43.54,1.07.81,1.92.81s1.5-.28,1.92-.83c.42-.55.63-1.36.63-2.42v-6.31h1.33v6.75c0,.77-.17,1.46-.5,2.08-.32.63-.77,1.11-1.35,1.46-.58.33-1.26.5-2.02.5s-1.45-.17-2.02-.5c-.57-.34-1.02-.83-1.35-1.46-.32-.64-.48-1.33-.48-2.08v-6.75h1.31Z"/>
    <path class="cls-7" d="m225.52,171.19l5.02,11h-1.4l-1.21-2.65h-4.85l-1.21,2.65h-1.4l5.04-11Zm-1.9,7.15h3.77l-1.88-4.27-1.9,4.27Z"/>
    <path class="cls-7" d="m237.32,171.63v9.35h3.19v1.21h-4.52v-10.56h1.33Z"/>
    <path class="cls-7" d="m247.24,171.63v10.56h-1.33v-10.56h1.33Z"/>
    <path class="cls-7" d="m259.12,171.63v1.21h-2.5v9.35h-1.31v-9.35h-2.52v-1.21h6.33Z"/>
    <path class="cls-7" d="m265.16,171.63l2.58,4.52,2.58-4.52h1.52l-3.46,5.98v4.58h-1.31v-4.58l-3.44-5.98h1.52Z"/>
    <path class="cls-7" d="m287.26,171.19l3.63,8.31,3.63-8.31,2.17,11h-1.35l-1.25-6.98h-.02l-3.17,7.21-3.17-7.21h-.02l-1.23,6.98h-1.35l2.15-11Z"/>
    <path class="cls-7" d="m308.09,171.63v1.21h-4.35v2.96h4.21v1.21h-4.21v3.98h4.35v1.21h-5.69v-10.56h5.69Z"/>
    <path class="cls-7" d="m318.2,171.19l5.02,11h-1.4l-1.21-2.65h-4.85l-1.21,2.65h-1.4l5.04-11Zm-1.9,7.15h3.77l-1.88-4.27-1.9,4.27Z"/>
    <path class="cls-7" d="m334.02,171.63v1.21h-2.5v9.35h-1.31v-9.35h-2.52v-1.21h6.33Z"/>
    <path class="cls-7" d="m345.37,173l-1.04.63c-.21-.32-.45-.56-.71-.73-.27-.17-.6-.25-1-.25-.46,0-.87.15-1.23.44-.35.28-.52.64-.52,1.06,0,.33.11.63.35.88.25.24.61.45,1.08.63l.77.29c.89.33,1.55.76,1.98,1.27.43.5.65,1.14.65,1.92,0,.96-.33,1.75-1,2.38-.66.61-1.45.92-2.38.92-.82,0-1.54-.27-2.15-.81-.61-.54-.98-1.26-1.1-2.15l1.31-.27c0,.57.19,1.05.58,1.44.4.38.89.56,1.46.56.54,0,1-.19,1.38-.58.39-.4.58-.9.58-1.48,0-.46-.14-.83-.42-1.13-.28-.3-.74-.59-1.4-.88l-.73-.31c-.85-.36-1.45-.75-1.79-1.17-.35-.43-.52-.93-.52-1.5,0-.79.3-1.44.9-1.96.61-.51,1.35-.77,2.23-.77.58,0,1.1.14,1.56.42.47.27.85.66,1.15,1.17Z"/>
    <path class="cls-7" d="m119.73,190.63v1.21h-4.35v2.96h4.21v1.21h-4.21v3.98h4.35v1.21h-5.69v-10.56h5.69Z"/>
    <path class="cls-7" d="m126.8,190.63l2.17,3.85,2.29-3.85h1.5l-3.04,5.04,3.21,5.52h-1.48l-2.48-4.33-2.58,4.33h-1.48l3.31-5.52-2.92-5.04h1.5Z"/>
    <path class="cls-7" d="m146.19,191.13v1.52c-.39-.33-.83-.59-1.31-.77-.49-.18-.97-.27-1.46-.27-.75,0-1.45.2-2.1.58-.64.38-1.15.9-1.52,1.56s-.56,1.39-.56,2.17.19,1.5.56,2.17c.39.67.9,1.19,1.52,1.56s1.31.56,2.06.56c.53,0,1.03-.09,1.5-.27.47-.19.91-.46,1.31-.81v1.54c-.43.25-.89.44-1.35.56-.46.13-.93.19-1.42.19-.99,0-1.91-.24-2.77-.73-.85-.5-1.52-1.17-2-2-.49-.83-.73-1.74-.73-2.73s.25-1.92.75-2.77c.5-.86,1.18-1.53,2.04-2.02.86-.5,1.8-.75,2.83-.75.47,0,.93.06,1.38.17.44.11.86.29,1.27.54Z"/>
    <path class="cls-7" d="m158.01,190.63v1.21h-4.35v2.96h4.21v1.21h-4.21v3.98h4.35v1.21h-5.69v-10.56h5.69Z"/>
    <path class="cls-7" d="m165.52,190.63v9.35h3.19v1.21h-4.52v-10.56h1.33Z"/>
    <path class="cls-7" d="m175.48,190.63v9.35h3.19v1.21h-4.52v-10.56h1.33Z"/>
    <path class="cls-7" d="m189.79,190.63v1.21h-4.35v2.96h4.21v1.21h-4.21v3.98h4.35v1.21h-5.69v-10.56h5.69Z"/>
    <path class="cls-7" d="m195.84,190.13l7.94,8.31v-7.81h1.31v11l-7.92-8.31v7.88h-1.33v-11.06Z"/>
    <path class="cls-7" d="m219.2,191.13v1.52c-.39-.33-.83-.59-1.31-.77-.49-.18-.97-.27-1.46-.27-.75,0-1.45.2-2.1.58-.64.38-1.15.9-1.52,1.56s-.56,1.39-.56,2.17.19,1.5.56,2.17c.39.67.9,1.19,1.52,1.56s1.31.56,2.06.56c.53,0,1.03-.09,1.5-.27.47-.19.91-.46,1.31-.81v1.54c-.43.25-.89.44-1.35.56-.46.13-.93.19-1.42.19-.99,0-1.91-.24-2.77-.73-.85-.5-1.52-1.17-2-2-.49-.83-.73-1.74-.73-2.73s.25-1.92.75-2.77c.5-.86,1.18-1.53,2.04-2.02.86-.5,1.8-.75,2.83-.75.47,0,.93.06,1.38.17.44.11.86.29,1.27.54Z"/>
    <path class="cls-7" d="m231.02,190.63v1.21h-4.35v2.96h4.21v1.21h-4.21v3.98h4.35v1.21h-5.69v-10.56h5.69Z"/>
    <path class="cls-7" d="m247.98,190.63c.83,0,1.61.13,2.35.38.75.25,1.38.61,1.9,1.08.53.46.92,1,1.19,1.63.26.63.4,1.34.4,2.15,0,1.11-.24,2.07-.73,2.88-.49.81-1.18,1.42-2.08,1.83-.91.42-1.95.63-3.13.63h-2.17v-10.56h2.27Zm-.96,9.35h.38c1.71,0,2.99-.35,3.85-1.06.83-.71,1.25-1.71,1.25-3s-.43-2.34-1.27-3.04c-.85-.69-2.12-1.04-3.81-1.04h-.4v8.15Z"/>
    <path class="cls-7" d="m263.62,190.19l5.02,11h-1.4l-1.21-2.65h-4.85l-1.21,2.65h-1.4l5.04-11Zm-1.9,7.15h3.77l-1.88-4.27-1.9,4.27Z"/>
    <path class="cls-7" d="m275.38,190.63v10.56h-1.33v-10.56h1.33Z"/>
    <path class="cls-7" d="m283.24,190.63v9.35h3.19v1.21h-4.52v-10.56h1.33Z"/>
    <path class="cls-7" d="m292.31,190.63l2.58,4.52,2.58-4.52h1.52l-3.46,5.98v4.58h-1.31v-4.58l-3.44-5.98h1.52Z"/>
    <path class="cls-7" d="m306.29,200.61c0,.22-.08.42-.23.58-.16.15-.35.23-.58.23s-.42-.08-.58-.23c-.16-.17-.23-.36-.23-.58s.07-.41.23-.56c.17-.17.36-.25.58-.25s.43.08.58.25c.15.16.23.34.23.56Z"/>
  </g>
</svg>